<svg width="28" height="28" viewBox="0 0 28 28" fill="none" xmlns="http://www.w3.org/2000/svg">
<path d="M4.66668 16.3334C4.4459 16.3341 4.22945 16.2722 4.04246 16.1548C3.85547 16.0375 3.70562 15.8694 3.61032 15.6703C3.51502 15.4711 3.47819 15.249 3.50409 15.0298C3.53 14.8105 3.61759 14.6031 3.75668 14.4317L15.3067 2.53169C15.3933 2.43169 15.5114 2.36411 15.6415 2.34005C15.7716 2.31599 15.906 2.33688 16.0227 2.39928C16.1394 2.46169 16.2314 2.56191 16.2836 2.68349C16.3358 2.80507 16.3451 2.94078 16.31 3.06836L14.07 10.0917C14.004 10.2685 13.9818 10.4586 14.0054 10.6459C14.029 10.8331 14.0976 11.0118 14.2054 11.1667C14.3133 11.3216 14.4571 11.448 14.6245 11.535C14.7919 11.6221 14.978 11.6673 15.1667 11.6667H23.3333C23.5541 11.6659 23.7706 11.7278 23.9576 11.8452C24.1446 11.9626 24.2944 12.1306 24.3897 12.3298C24.485 12.5289 24.5218 12.751 24.4959 12.9703C24.47 13.1895 24.3824 13.3969 24.2433 13.5684L12.6933 25.4684C12.6067 25.5684 12.4886 25.6359 12.3585 25.66C12.2284 25.6841 12.094 25.6632 11.9773 25.6008C11.8607 25.5384 11.7687 25.4381 11.7165 25.3166C11.6642 25.195 11.6549 25.0593 11.69 24.9317L13.93 17.9084C13.9961 17.7316 14.0182 17.5414 13.9947 17.3542C13.9711 17.167 13.9024 16.9882 13.7946 16.8334C13.6867 16.6785 13.5429 16.5521 13.3755 16.465C13.2081 16.3779 13.0221 16.3327 12.8333 16.3334H4.66668Z" stroke="#0B64F4" stroke-width="2.33333" stroke-linecap="round" stroke-linejoin="round"/>
</svg>
