<svg width="56" height="56" viewBox="0 0 56 56" fill="none" xmlns="http://www.w3.org/2000/svg">
<rect width="56" height="56" rx="16" fill="#0B64F4" fill-opacity="0.1"/>
<path d="M30.3334 35.0001V21.0001C30.3334 20.3812 30.0876 19.7878 29.65 19.3502C29.2124 18.9126 28.6189 18.6667 28.0001 18.6667H18.6668C18.0479 18.6667 17.4544 18.9126 17.0169 19.3502C16.5793 19.7878 16.3334 20.3812 16.3334 21.0001V33.8334C16.3334 34.1428 16.4564 34.4396 16.6751 34.6584C16.8939 34.8772 17.1907 35.0001 17.5001 35.0001H19.8334" stroke="#0B64F4" stroke-width="2.33333" stroke-linecap="round" stroke-linejoin="round"/>
<path d="M31.5001 35H24.5001" stroke="#0B64F4" stroke-width="2.33333" stroke-linecap="round" stroke-linejoin="round"/>
<path d="M36.1668 34.9999H38.5001C38.8095 34.9999 39.1063 34.877 39.3251 34.6582C39.5439 34.4394 39.6668 34.1427 39.6668 33.8333V29.5749C39.6663 29.3102 39.5758 29.0534 39.4101 28.8469L35.3501 23.7719C35.241 23.6353 35.1026 23.5249 34.945 23.449C34.7875 23.3731 34.615 23.3335 34.4401 23.3333H30.3334" stroke="#0B64F4" stroke-width="2.33333" stroke-linecap="round" stroke-linejoin="round"/>
<path d="M33.8334 37.3334C35.1221 37.3334 36.1667 36.2887 36.1667 35.0001C36.1667 33.7114 35.1221 32.6667 33.8334 32.6667C32.5447 32.6667 31.5001 33.7114 31.5001 35.0001C31.5001 36.2887 32.5447 37.3334 33.8334 37.3334Z" stroke="#0B64F4" stroke-width="2.33333" stroke-linecap="round" stroke-linejoin="round"/>
<path d="M22.1668 37.3334C23.4554 37.3334 24.5001 36.2887 24.5001 35.0001C24.5001 33.7114 23.4554 32.6667 22.1668 32.6667C20.8781 32.6667 19.8334 33.7114 19.8334 35.0001C19.8334 36.2887 20.8781 37.3334 22.1668 37.3334Z" stroke="#0B64F4" stroke-width="2.33333" stroke-linecap="round" stroke-linejoin="round"/>
</svg>
