<svg width="40" height="40" viewBox="0 0 40 40" fill="none" xmlns="http://www.w3.org/2000/svg">
<rect width="40" height="40" rx="20" fill="#1ABC71" fill-opacity="0.1"/>
<path d="M21.6667 25V15C21.6667 14.558 21.4911 14.134 21.1785 13.8215C20.866 13.5089 20.442 13.3333 20 13.3333H13.3333C12.8913 13.3333 12.4674 13.5089 12.1548 13.8215C11.8423 14.134 11.6667 14.558 11.6667 15V24.1666C11.6667 24.3877 11.7545 24.5996 11.9107 24.7559C12.067 24.9122 12.279 25 12.5 25H14.1667" stroke="#1ABC71" stroke-width="1.66667" stroke-linecap="round" stroke-linejoin="round"/>
<path d="M22.5 25H17.5" stroke="#1ABC71" stroke-width="1.66667" stroke-linecap="round" stroke-linejoin="round"/>
<path d="M25.8333 25H27.5C27.721 25 27.933 24.9122 28.0893 24.7559C28.2455 24.5997 28.3333 24.3877 28.3333 24.1667V21.125C28.333 20.9359 28.2684 20.7525 28.15 20.605L25.25 16.98C25.1721 16.8824 25.0732 16.8036 24.9607 16.7494C24.8482 16.6951 24.7249 16.6669 24.6 16.6667H21.6667" stroke="#1ABC71" stroke-width="1.66667" stroke-linecap="round" stroke-linejoin="round"/>
<path d="M24.1667 26.6666C25.0871 26.6666 25.8333 25.9205 25.8333 25C25.8333 24.0795 25.0871 23.3333 24.1667 23.3333C23.2462 23.3333 22.5 24.0795 22.5 25C22.5 25.9205 23.2462 26.6666 24.1667 26.6666Z" stroke="#1ABC71" stroke-width="1.66667" stroke-linecap="round" stroke-linejoin="round"/>
<path d="M15.8333 26.6666C16.7538 26.6666 17.5 25.9205 17.5 25C17.5 24.0795 16.7538 23.3333 15.8333 23.3333C14.9129 23.3333 14.1667 24.0795 14.1667 25C14.1667 25.9205 14.9129 26.6666 15.8333 26.6666Z" stroke="#1ABC71" stroke-width="1.66667" stroke-linecap="round" stroke-linejoin="round"/>
</svg>
