<svg width="28" height="28" viewBox="0 0 28 28" fill="none" xmlns="http://www.w3.org/2000/svg">
<path d="M16.3334 21.0001V7.00008C16.3334 6.38124 16.0875 5.78775 15.65 5.35017C15.2124 4.91258 14.6189 4.66675 14 4.66675H4.66671C4.04787 4.66675 3.45438 4.91258 3.01679 5.35017C2.57921 5.78775 2.33337 6.38124 2.33337 7.00008V19.8334C2.33337 20.1428 2.45629 20.4396 2.67508 20.6584C2.89388 20.8772 3.19062 21.0001 3.50004 21.0001H5.83337" stroke="#0B64F4" stroke-width="2.33333" stroke-linecap="round" stroke-linejoin="round"/>
<path d="M17.5 21H10.5" stroke="#0B64F4" stroke-width="2.33333" stroke-linecap="round" stroke-linejoin="round"/>
<path d="M22.1667 20.9999H24.5C24.8095 20.9999 25.1062 20.877 25.325 20.6582C25.5438 20.4394 25.6667 20.1427 25.6667 19.8333V15.5749C25.6662 15.3102 25.5757 15.0534 25.41 14.8469L21.35 9.77192C21.2409 9.63528 21.1025 9.52491 20.945 9.44898C20.7875 9.37305 20.6149 9.3335 20.44 9.33325H16.3334" stroke="#0B64F4" stroke-width="2.33333" stroke-linecap="round" stroke-linejoin="round"/>
<path d="M19.8333 23.3334C21.122 23.3334 22.1667 22.2887 22.1667 21.0001C22.1667 19.7114 21.122 18.6667 19.8333 18.6667C18.5447 18.6667 17.5 19.7114 17.5 21.0001C17.5 22.2887 18.5447 23.3334 19.8333 23.3334Z" stroke="#0B64F4" stroke-width="2.33333" stroke-linecap="round" stroke-linejoin="round"/>
<path d="M8.16671 23.3334C9.45537 23.3334 10.5 22.2887 10.5 21.0001C10.5 19.7114 9.45537 18.6667 8.16671 18.6667C6.87804 18.6667 5.83337 19.7114 5.83337 21.0001C5.83337 22.2887 6.87804 23.3334 8.16671 23.3334Z" stroke="#0B64F4" stroke-width="2.33333" stroke-linecap="round" stroke-linejoin="round"/>
</svg>
