<svg width="205" height="40" viewBox="0 0 205 40" fill="none" xmlns="http://www.w3.org/2000/svg">
<rect width="40" height="40" rx="16" fill="#0B64F4"/>
<path d="M15.44 28V13.1H25.34V15.5H18.16V19.32H24.94V21.72H18.16V25.6H25.34V28H15.44Z" fill="white"/>
<path d="M49.44 28V13.1H59.34V15.5H52.16V19.32H58.94V21.72H52.16V25.6H59.34V28H49.44ZM61.1145 28V12.86H63.7345V28H61.1145ZM71.3136 28.24C70.1936 28.24 69.2136 27.9867 68.3736 27.48C67.5336 26.9733 66.8803 26.2867 66.4136 25.42C65.9469 24.5533 65.7136 23.5933 65.7136 22.54C65.7136 21.4467 65.9469 20.48 66.4136 19.64C66.8936 18.7867 67.5403 18.1133 68.3536 17.62C69.1803 17.1267 70.1003 16.88 71.1136 16.88C71.9669 16.88 72.7136 17.02 73.3536 17.3C74.0069 17.58 74.5603 17.9667 75.0136 18.46C75.4669 18.9533 75.8136 19.52 76.0536 20.16C76.2936 20.7867 76.4136 21.4667 76.4136 22.2C76.4136 22.3867 76.4003 22.58 76.3736 22.78C76.3603 22.98 76.3269 23.1533 76.2736 23.3H67.8736V21.3H74.7936L73.5536 22.24C73.6736 21.6267 73.6403 21.08 73.4536 20.6C73.2803 20.12 72.9869 19.74 72.5736 19.46C72.1736 19.18 71.6869 19.04 71.1136 19.04C70.5669 19.04 70.0803 19.18 69.6536 19.46C69.2269 19.7267 68.9003 20.1267 68.6736 20.66C68.4603 21.18 68.3803 21.8133 68.4336 22.56C68.3803 23.2267 68.4669 23.82 68.6936 24.34C68.9336 24.8467 69.2803 25.24 69.7336 25.52C70.2003 25.8 70.7336 25.94 71.3336 25.94C71.9336 25.94 72.4403 25.8133 72.8536 25.56C73.2803 25.3067 73.6136 24.9667 73.8536 24.54L75.9736 25.58C75.7603 26.1 75.4269 26.56 74.9736 26.96C74.5203 27.36 73.9803 27.6733 73.3536 27.9C72.7403 28.1267 72.0603 28.24 71.3136 28.24ZM83.6397 28.24C82.5597 28.24 81.5864 27.9933 80.7197 27.5C79.8664 26.9933 79.193 26.3133 78.6997 25.46C78.2064 24.5933 77.9597 23.62 77.9597 22.54C77.9597 21.46 78.2064 20.4933 78.6997 19.64C79.193 18.7867 79.8664 18.1133 80.7197 17.62C81.5864 17.1267 82.5597 16.88 83.6397 16.88C84.413 16.88 85.133 17.02 85.7997 17.3C86.4664 17.5667 87.0397 17.94 87.5197 18.42C88.013 18.8867 88.3664 19.4467 88.5797 20.1L86.2797 21.1C86.0797 20.5533 85.7397 20.1133 85.2597 19.78C84.793 19.4467 84.253 19.28 83.6397 19.28C83.0664 19.28 82.553 19.42 82.0997 19.7C81.6597 19.98 81.313 20.3667 81.0597 20.86C80.8064 21.3533 80.6797 21.92 80.6797 22.56C80.6797 23.2 80.8064 23.7667 81.0597 24.26C81.313 24.7533 81.6597 25.14 82.0997 25.42C82.553 25.7 83.0664 25.84 83.6397 25.84C84.2664 25.84 84.813 25.6733 85.2797 25.34C85.7464 25.0067 86.0797 24.56 86.2797 24L88.5797 25.04C88.3664 25.6533 88.0197 26.2067 87.5397 26.7C87.0597 27.18 86.4864 27.56 85.8197 27.84C85.153 28.1067 84.4264 28.24 83.6397 28.24ZM95.5277 28.12C94.301 28.12 93.3477 27.7867 92.6677 27.12C92.001 26.44 91.6677 25.4867 91.6677 24.26V19.46H89.7877V17.12H89.9877C90.521 17.12 90.9343 16.98 91.2277 16.7C91.521 16.42 91.6677 16.0133 91.6677 15.48V14.64H94.2877V17.12H96.7877V19.46H94.2877V24.12C94.2877 24.48 94.3477 24.7867 94.4677 25.04C94.601 25.2933 94.801 25.4867 95.0677 25.62C95.3477 25.7533 95.701 25.82 96.1277 25.82C96.221 25.82 96.3277 25.8133 96.4477 25.8C96.581 25.7867 96.7077 25.7733 96.8277 25.76V28C96.641 28.0267 96.4277 28.0533 96.1877 28.08C95.9477 28.1067 95.7277 28.12 95.5277 28.12ZM98.8294 28V17.12H101.289V19.54L101.089 19.18C101.343 18.3667 101.736 17.8 102.269 17.48C102.816 17.16 103.469 17 104.229 17H104.869V19.32H103.929C103.183 19.32 102.583 19.5533 102.129 20.02C101.676 20.4733 101.449 21.1133 101.449 21.94V28H98.8294ZM111.63 28.24C110.563 28.24 109.59 27.9933 108.71 27.5C107.843 27.0067 107.15 26.3333 106.63 25.48C106.123 24.6267 105.87 23.6533 105.87 22.56C105.87 21.4667 106.123 20.4933 106.63 19.64C107.15 18.7867 107.843 18.1133 108.71 17.62C109.577 17.1267 110.55 16.88 111.63 16.88C112.697 16.88 113.663 17.1267 114.53 17.62C115.397 18.1133 116.083 18.7867 116.59 19.64C117.11 20.48 117.37 21.4533 117.37 22.56C117.37 23.6533 117.11 24.6267 116.59 25.48C116.07 26.3333 115.377 27.0067 114.51 27.5C113.643 27.9933 112.683 28.24 111.63 28.24ZM111.63 25.84C112.217 25.84 112.73 25.7 113.17 25.42C113.623 25.14 113.977 24.7533 114.23 24.26C114.497 23.7533 114.63 23.1867 114.63 22.56C114.63 21.92 114.497 21.36 114.23 20.88C113.977 20.3867 113.623 20 113.17 19.72C112.73 19.4267 112.217 19.28 111.63 19.28C111.03 19.28 110.503 19.4267 110.05 19.72C109.597 20 109.237 20.3867 108.97 20.88C108.717 21.36 108.59 21.92 108.59 22.56C108.59 23.1867 108.717 23.7533 108.97 24.26C109.237 24.7533 109.597 25.14 110.05 25.42C110.503 25.7 111.03 25.84 111.63 25.84ZM119.577 28V13.1H122.297V19.6H128.637V13.1H131.377V28H128.637V22H122.297V28H119.577ZM137.905 28.24C137.065 28.24 136.331 28.0533 135.705 27.68C135.091 27.3067 134.618 26.7867 134.285 26.12C133.965 25.4533 133.805 24.6733 133.805 23.78V17.12H136.425V23.56C136.425 24.0133 136.511 24.4133 136.685 24.76C136.871 25.0933 137.131 25.36 137.465 25.56C137.811 25.7467 138.198 25.84 138.625 25.84C139.051 25.84 139.431 25.7467 139.765 25.56C140.098 25.36 140.358 25.0867 140.545 24.74C140.731 24.3933 140.825 23.98 140.825 23.5V17.12H143.445V28H140.965V25.86L141.185 26.24C140.931 26.9067 140.511 27.4067 139.925 27.74C139.351 28.0733 138.678 28.24 137.905 28.24ZM151.82 28.24C151.033 28.24 150.307 28.0867 149.64 27.78C148.987 27.46 148.467 27.0067 148.08 26.42L148.34 25.9V28H145.88V12.86H148.5V19.28L148.1 18.74C148.473 18.1533 148.98 17.7 149.62 17.38C150.26 17.0467 151 16.88 151.84 16.88C152.867 16.88 153.793 17.1333 154.62 17.64C155.447 18.1467 156.1 18.8267 156.58 19.68C157.073 20.5333 157.32 21.4933 157.32 22.56C157.32 23.6133 157.08 24.5733 156.6 25.44C156.12 26.3067 155.467 26.9933 154.64 27.5C153.813 27.9933 152.873 28.24 151.82 28.24ZM151.52 25.84C152.12 25.84 152.653 25.7 153.12 25.42C153.587 25.14 153.947 24.7533 154.2 24.26C154.467 23.7667 154.6 23.2 154.6 22.56C154.6 21.92 154.467 21.36 154.2 20.88C153.947 20.3867 153.587 20 153.12 19.72C152.653 19.4267 152.12 19.28 151.52 19.28C150.947 19.28 150.427 19.42 149.96 19.7C149.507 19.98 149.147 20.3733 148.88 20.88C148.627 21.3733 148.5 21.9333 148.5 22.56C148.5 23.2 148.627 23.7667 148.88 24.26C149.147 24.7533 149.507 25.14 149.96 25.42C150.427 25.7 150.947 25.84 151.52 25.84Z" fill="white"/>
</svg>
