<svg width="44" height="44" viewBox="0 0 44 44" fill="none" xmlns="http://www.w3.org/2000/svg">
<path d="M17.3333 30.6667C17.7015 30.6667 18 30.3682 18 30C18 29.6318 17.7015 29.3333 17.3333 29.3333C16.9651 29.3333 16.6666 29.6318 16.6666 30C16.6666 30.3682 16.9651 30.6667 17.3333 30.6667Z" stroke="#0B64F4" stroke-width="1.33333" stroke-linecap="round" stroke-linejoin="round"/>
<path d="M24.6667 30.6667C25.0349 30.6667 25.3333 30.3682 25.3333 30C25.3333 29.6318 25.0349 29.3333 24.6667 29.3333C24.2985 29.3333 24 29.6318 24 30C24 30.3682 24.2985 30.6667 24.6667 30.6667Z" stroke="#0B64F4" stroke-width="1.33333" stroke-linecap="round" stroke-linejoin="round"/>
<path d="M13.3667 17.3667H14.7L16.4734 25.6467C16.5384 25.9499 16.7071 26.221 16.9505 26.4132C17.1939 26.6055 17.4966 26.7069 17.8067 26.7H24.3267C24.6301 26.6995 24.9244 26.5955 25.1607 26.4052C25.3971 26.2149 25.5615 25.9497 25.6267 25.6533L26.7267 20.7H15.4134" stroke="#0B64F4" stroke-width="1.33333" stroke-linecap="round" stroke-linejoin="round"/>
<rect x="24" width="20" height="20" rx="10" fill="#0B64F4"/>
<path d="M33.848 14.744C33.368 14.744 32.916 14.656 32.492 14.48C32.076 14.304 31.716 14.056 31.412 13.736C31.116 13.416 30.904 13.04 30.776 12.608L31.976 12.152C32.136 12.576 32.38 12.904 32.708 13.136C33.036 13.368 33.416 13.484 33.848 13.484C34.2 13.484 34.504 13.416 34.76 13.28C35.024 13.144 35.228 12.952 35.372 12.704C35.524 12.456 35.6 12.156 35.6 11.804C35.6 11.46 35.524 11.164 35.372 10.916C35.228 10.668 35.024 10.48 34.76 10.352C34.504 10.224 34.2 10.16 33.848 10.16C33.704 10.16 33.556 10.172 33.404 10.196C33.26 10.22 33.132 10.252 33.02 10.292L32.708 9.632L35.06 6.86H31.256V5.66H36.644V6.8L34.34 9.56L34.304 9.104C34.84 9.112 35.312 9.232 35.72 9.464C36.128 9.688 36.444 10 36.668 10.4C36.9 10.792 37.016 11.248 37.016 11.768C37.016 12.328 36.88 12.836 36.608 13.292C36.336 13.74 35.96 14.096 35.48 14.36C35.008 14.616 34.464 14.744 33.848 14.744Z" fill="white"/>
</svg>
