<svg width="56" height="56" viewBox="0 0 56 56" fill="none" xmlns="http://www.w3.org/2000/svg">
<rect width="56" height="56" rx="16" fill="#0B64F4" fill-opacity="0.1"/>
<path d="M26.8333 37.3333C24.7847 37.3395 22.8086 36.5755 21.2969 35.1929C19.7852 33.8103 18.8484 31.9101 18.6722 29.869C18.496 27.828 19.0933 25.7953 20.3457 24.1741C21.598 22.5529 23.414 21.4616 25.4333 21.1166C32.0833 19.8333 33.8333 19.2266 36.1667 16.3333C37.3333 18.6666 38.5 21.2099 38.5 25.6666C38.5 32.0833 32.9233 37.3333 26.8333 37.3333Z" stroke="#0B64F4" stroke-width="2.33333" stroke-linecap="round" stroke-linejoin="round"/>
<path d="M16.3333 38.5C16.3333 35 18.4916 32.2467 22.26 31.5C25.0833 30.94 28 29.1667 29.1666 28" stroke="#0B64F4" stroke-width="2.33333" stroke-linecap="round" stroke-linejoin="round"/>
</svg>
