<svg width="28" height="28" viewBox="0 0 28 28" fill="none" xmlns="http://www.w3.org/2000/svg">
<path d="M12.8333 23.3333C10.7847 23.3395 8.80862 22.5755 7.29693 21.1929C5.78524 19.8103 4.84839 17.9101 4.67219 15.869C4.49598 13.828 5.0933 11.7953 6.34567 10.1741C7.59804 8.55289 9.41398 7.46157 11.4333 7.11659C18.0833 5.83325 19.8333 5.22659 22.1667 2.33325C23.3333 4.66659 24.5 7.20992 24.5 11.6666C24.5 18.0833 18.9233 23.3333 12.8333 23.3333Z" stroke="#0B64F4" stroke-width="2.33333" stroke-linecap="round" stroke-linejoin="round"/>
<path d="M2.33331 24.5C2.33331 21 4.49165 18.2467 8.25998 17.5C11.0833 16.94 14 15.1667 15.1666 14" stroke="#0B64F4" stroke-width="2.33333" stroke-linecap="round" stroke-linejoin="round"/>
</svg>
