<svg width="48" height="36" viewBox="0 0 48 36" fill="none" xmlns="http://www.w3.org/2000/svg">
<rect width="48" height="36" rx="18" fill="#0B64F4"/>
<path d="M21.3333 24.6666C21.7015 24.6666 22 24.3681 22 23.9999C22 23.6317 21.7015 23.3333 21.3333 23.3333C20.9651 23.3333 20.6667 23.6317 20.6667 23.9999C20.6667 24.3681 20.9651 24.6666 21.3333 24.6666Z" stroke="white" stroke-width="1.33333" stroke-linecap="round" stroke-linejoin="round"/>
<path d="M28.6667 24.6666C29.0349 24.6666 29.3333 24.3681 29.3333 23.9999C29.3333 23.6317 29.0349 23.3333 28.6667 23.3333C28.2985 23.3333 28 23.6317 28 23.9999C28 24.3681 28.2985 24.6666 28.6667 24.6666Z" stroke="white" stroke-width="1.33333" stroke-linecap="round" stroke-linejoin="round"/>
<path d="M17.3667 11.3667H18.7L20.4733 19.6467C20.5384 19.9499 20.7071 20.221 20.9505 20.4133C21.1938 20.6055 21.4966 20.7069 21.8067 20.7H28.3267C28.6301 20.6995 28.9243 20.5956 29.1607 20.4053C29.397 20.215 29.5614 19.9497 29.6267 19.6534L30.7267 14.7H19.4133" stroke="white" stroke-width="1.33333" stroke-linecap="round" stroke-linejoin="round"/>
</svg>
