<svg width="40" height="40" viewBox="0 0 40 40" fill="none" xmlns="http://www.w3.org/2000/svg">
<rect width="40" height="40" rx="20" fill="#0B64F4" fill-opacity="0.1"/>
<path d="M26.6667 20.8334C26.6667 25 23.75 27.0834 20.2833 28.2917C20.1018 28.3532 19.9046 28.3503 19.725 28.2834C16.25 27.0834 13.3333 25 13.3333 20.8334V15C13.3333 14.779 13.4211 14.5671 13.5774 14.4108C13.7337 14.2545 13.9457 14.1667 14.1667 14.1667C15.8333 14.1667 17.9167 13.1667 19.3667 11.9C19.5432 11.7492 19.7678 11.6663 20 11.6663C20.2322 11.6663 20.4568 11.7492 20.6333 11.9C22.0917 13.175 24.1667 14.1667 25.8333 14.1667C26.0544 14.1667 26.2663 14.2545 26.4226 14.4108C26.5789 14.5671 26.6667 14.779 26.6667 15V20.8334Z" stroke="#0B64F4" stroke-width="1.66667" stroke-linecap="round" stroke-linejoin="round"/>
</svg>
